# xmcd
#
# Track frame offsets: 
#        150
#        20080
#        35797
#        53850
#        72890
#        82330
#        103622
#        123625
#        146610
#        167430
#
# Disc length: 2651 seconds
#
# Revision: 3
# Processed by: cddbd v1.5.2PL0 Copyright (c) Steve Scherf et al.
# Submitted via: ExactAudioCopy v0.99pb5
#
DISCID=910a590a
DTITLE=Tracy Chapman - Matters Of The Heart
DYEAR=1900
DGENRE=Folk/Rock
TTITLE0=Bang Bang Bang
TTITLE1=So
TTITLE2=I Used To Be A Sailor
TTITLE3=The Love That You Had
TTITLE4=Woman's Work
TTITLE5=If These Are The Things
TTITLE6=Short Supply
TTITLE7=Dreaming On A World
TTITLE8=Open Arms
TTITLE9=Matters Of The Heart
EXTD=
EXTT0=
EXTT1=
EXTT2=
EXTT3=
EXTT4=
EXTT5=
EXTT6=
EXTT7=
EXTT8=
EXTT9=
PLAYORDER=
